<?xml version="1.0" encoding="UTF-8"?>
<!DOCTYPE svg PUBLIC "-//W3C//DTD SVG 1.1//EN" "http://www.w3.org/Graphics/SVG/1.1/DTD/svg11.dtd">
<!-- Creator: CorelDRAW -->
<svg xmlns="http://www.w3.org/2000/svg" xml:space="preserve" width="19.4026mm" height="6.7026mm" version="1.1" style="shape-rendering:geometricPrecision; text-rendering:geometricPrecision; image-rendering:optimizeQuality; fill-rule:evenodd; clip-rule:evenodd"
viewBox="0 0 1940.26 670.26"
 xmlns:xlink="http://www.w3.org/1999/xlink"
 xmlns:xodm="http://www.corel.com/coreldraw/odm/2003">
 <defs>
  <style type="text/css">
   <![CDATA[
    .fil0 {fill:#7D21B2;fill-rule:nonzero}
   ]]>
  </style>
 </defs>
 <g id="Слой_x0020_1">
  <metadata id="CorelCorpID_0Corel-Layer"/>
  <path class="fil0" d="M1804.31 29.06l-1703.64 0c-59.49,0 -107.73,48.24 -107.73,107.74 0,59.5 48.24,107.73 107.73,107.73l713.62 0 0 0.01c59.78,0 108.23,48.46 108.23,108.24 0,59.7 -48.33,108.1 -108,108.23l-250.76 0c-59.51,0 -107.74,48.24 -107.74,107.73 0,59.51 48.23,107.75 107.74,107.75l795.69 0c59.5,0 107.73,-48.24 107.73,-107.75 0,-59.49 -48.23,-107.73 -107.73,-107.73l-151.72 0c-59.67,-0.13 -108,-48.53 -108,-108.23 0,-59.78 48.46,-108.24 108.24,-108.24l0 -0.01 596.34 0c59.51,0 107.73,-48.23 107.73,-107.73 0,-59.5 -48.22,-107.74 -107.73,-107.74z"/>
 </g>
</svg>

