<?xml version="1.0" encoding="UTF-8"?>
<!DOCTYPE svg PUBLIC "-//W3C//DTD SVG 1.1//EN" "http://www.w3.org/Graphics/SVG/1.1/DTD/svg11.dtd">
<!-- Creator: CorelDRAW -->
<svg xmlns="http://www.w3.org/2000/svg" xml:space="preserve" width="10.2304mm" height="8.4666mm" version="1.1" style="shape-rendering:geometricPrecision; text-rendering:geometricPrecision; image-rendering:optimizeQuality; fill-rule:evenodd; clip-rule:evenodd"
viewBox="0 0 1023.04 846.66"
 xmlns:xlink="http://www.w3.org/1999/xlink"
 xmlns:xodm="http://www.corel.com/coreldraw/odm/2003">
 <defs>
  <style type="text/css">
   <![CDATA[
    .fil0 {fill:#187500;fill-rule:nonzero}
   ]]>
  </style>
 </defs>
 <g id="Слой_x0020_1">
  <metadata id="CorelCorpID_0Corel-Layer"/>
  <path class="fil0" d="M617.2 592.17c-4.64,20.44 -3.59,42.12 6.64,64.01 16.52,35.39 49.32,58.33 77.55,85.32 0,0 22.75,-7.83 35.96,-23.06 17.27,10.42 41.31,10.83 41.31,10.83 18.51,-34.39 42.62,-66.35 47.4,-105.11 3.46,-28.06 -4.95,-51.97 -19.36,-71.86 19.9,14.41 43.81,22.81 71.87,19.35 38.75,-4.78 70.72,-28.89 105.11,-47.4 0,0 -0.42,-24.05 -10.83,-41.31 15.24,-13.21 23.06,-35.95 23.06,-35.95 -26.99,-28.22 -49.93,-61.04 -85.32,-77.56 -25.61,-11.97 -50.94,-11.36 -74.32,-3.8 19.86,-14.47 35.24,-34.62 40.62,-62.36 7.42,-38.34 -5.63,-76.19 -12.6,-114.62 0,0 -23.01,-7.03 -42.64,-2.46 -7.86,-18.58 -27.07,-33.06 -27.07,-33.06 -35.18,16.96 -73.47,28.64 -100.13,57.19 -16.77,17.96 -24.43,38.66 -26.18,59.91l-4.74 -1.73c-8.31,-18.71 -21.76,-35.14 -42.41,-46.57 -1.76,-0.97 -3.53,-1.89 -5.31,-2.76 0.33,-3.1 0.57,-6.24 0.73,-9.44 2.21,-44.99 -12.65,-84.74 -27.6,-124.74 -4.13,-11.06 -8.3,-22.18 -12.01,-33.31 -3.14,-9.39 -11.4,-15.63 -20.64,-16.69 -0.07,-0.01 -24.06,-3.83 -49.84,1.11 -17.36,-19.67 -38.61,-31.24 -38.68,-31.28 -8.88,-5.53 -19.92,-4.71 -27.82,1.22 -9.61,6.42 -19.23,12.38 -28.79,18.31 -36.33,22.53 -72.46,44.94 -98.17,81.84l-1.15 1.82c-9.65,14.24 -16.4,28.94 -20.71,43.83 -12.49,-10.33 -27.04,-18.98 -43.92,-25.4 -42.1,-16 -84.51,-14.14 -127.16,-12.28 -12.16,0.53 -24.37,1.07 -35.26,1.15 -9.99,0.04 -18.57,6.04 -22.39,14.62 -2.21,4.64 -11.29,24.69 -14.27,47.61 -24.12,10.47 -41.83,27.19 -41.89,27.24 -7.54,6.45 -10.22,16.48 -7.72,25.46 3.48,12.25 6.21,23.31 8.91,34.32 10.19,41.45 20.33,82.65 47.5,118.55 10.81,14.3 23.22,25.82 36.75,34.95 -13.71,8.69 -26.44,19.84 -37.74,33.88 -28.27,35.13 -39.61,76.03 -51.02,117.17 -2.92,10.56 -5.87,21.17 -9.92,33.98 -2.86,9.08 -0.21,18.58 6.08,24.89 0.06,0.06 17.92,17.83 41.93,29.19 2.71,26.39 13.64,49.68 13.67,49.75 4.16,8.33 12.42,13.26 21.12,13.6 10.36,0.38 22.87,1.3 35.39,2.22 42.43,3.1 84.6,6.19 127.34,-8.63 17.06,-5.91 31.84,-14.11 44.6,-24.02 4.03,15.69 10.71,31.22 20.58,46.31 24.65,37.69 60.03,61.13 95.63,84.7 10.13,6.7 20.29,13.43 29.37,19.92 8.35,5.94 19.15,5.93 27.34,0.82 5.98,-3.33 23.89,-13.97 38.85,-29.77 25.81,5.7 50.52,2.59 50.59,2.58 9.61,-1.06 17.32,-7.51 20.45,-16.01 3.93,-10.74 8.49,-21.89 13.02,-33 16.07,-39.4 32.04,-78.58 31.17,-123.76 -0.29,-15.01 -2.55,-28.97 -6.43,-41.93 2.73,-2.41 5.32,-4.97 7.78,-7.64 1.9,-0.01 3.81,-0.06 5.72,-0.14zm-49.77 -386.93c-19.45,-2.95 -39.5,-4.08 -59.21,-6.75 0,0 -13.8,19.7 -15.53,39.8 -20.09,1.72 -39.79,15.52 -39.79,15.52 5.24,38.7 4.52,78.73 23.44,112.9 13.68,24.73 34.54,39.13 57.89,46.75 -24.56,0.04 -48.85,7.29 -69.51,26.59 -28.54,26.65 -40.23,64.94 -57.17,100.12 0,0 14.46,19.22 33.04,27.07 -4.56,19.63 2.47,42.64 2.47,42.64 38.42,6.97 76.27,20.03 114.62,12.6l0.93 -0.19c1.38,6.48 2.18,13.26 2.32,20.37 0.67,34.9 -13.47,69.58 -27.69,104.46l-7.73 19.16c-8.53,-0.12 -19.4,-1.16 -28.69,-4.82 -11.06,-5.33 -24.62,-1.69 -31.42,8.9 -5.7,8.86 -14.42,16.2 -21.52,21.22l-17.34 -11.58c-31.29,-20.72 -62.38,-41.32 -81.55,-70.62 -7.99,-12.21 -12.92,-24.74 -15.37,-37.29 -2.76,-14.07 -2.49,-28.41 -0.09,-42.55 1.74,-10.23 -3.14,-20.85 -12.81,-25.95 -12.03,-6.34 -26.94,-1.71 -33.28,10.32 -6.71,12.67 -15.25,24.16 -25.96,33.55 -9.66,8.46 -21.24,15.39 -34.97,20.15 -32.91,11.41 -70.27,8.68 -107.84,5.93l-20.76 -1.42c-2.5,-8.25 -4.9,-19.4 -4.02,-30.05 0.98,-11.7 -6.55,-22.77 -18.29,-25.86 -10.1,-2.66 -19.8,-8.75 -26.81,-14.02l5.59 -19.96c10.03,-36.18 20.02,-72.16 41.96,-99.43 9.17,-11.4 19.59,-19.96 30.75,-26.17 12.14,-6.75 25.5,-10.89 39.37,-12.98 10.73,-1.09 19.88,-9.18 21.82,-20.32 2.34,-13.42 -6.65,-26.21 -20.07,-28.55 -14.3,-2.5 -27.92,-7.08 -40.06,-14.3 -10.85,-6.46 -20.97,-15.33 -29.86,-27.09 -21.16,-27.95 -30.06,-64.16 -39.02,-100.59l-5.01 -20.1c7.37,-5.17 17.26,-10.96 27.15,-13.25 11.49,-2.62 19.76,-13.21 19.1,-25.37 -0.59,-10.48 2.16,-21.58 4.98,-29.9l20.68 -0.82c37.54,-1.63 74.88,-3.27 107.68,9.2 13.6,5.17 24.94,12.43 34.31,21.14 10.21,9.5 18.27,20.89 24.53,33.36 4.33,9.89 14.85,16.1 26.06,14.51 13.48,-1.91 22.85,-14.4 20.94,-27.88 -2.02,-14.25 -1.87,-28.6 1.28,-42.51 2.72,-11.99 7.68,-23.87 15.42,-35.33l1.12 -1.5c20.06,-28.79 51.7,-48.41 83.51,-68.14l17.56 -10.98c7.23,5.45 15.83,13.1 21.11,21.77 6.05,10.07 18.63,14.63 29.96,10.26 9.5,-3.69 21.01,-4.48 30.05,-4.36l7.12 19.27c12.89,34.48 25.7,68.75 24.61,103.07z"/>
 </g>
</svg>

