<?xml version="1.0" encoding="UTF-8"?>
<!DOCTYPE svg PUBLIC "-//W3C//DTD SVG 1.1//EN" "http://www.w3.org/Graphics/SVG/1.1/DTD/svg11.dtd">
<!-- Creator: CorelDRAW -->
<svg xmlns="http://www.w3.org/2000/svg" xml:space="preserve" width="21.5194mm" height="10.5832mm" version="1.1" style="shape-rendering:geometricPrecision; text-rendering:geometricPrecision; image-rendering:optimizeQuality; fill-rule:evenodd; clip-rule:evenodd"
viewBox="0 0 2151.94 1058.32"
 xmlns:xlink="http://www.w3.org/1999/xlink"
 xmlns:xodm="http://www.corel.com/coreldraw/odm/2003">
 <defs>
  <style type="text/css">
   <![CDATA[
    .fil0 {fill:#00AA00;fill-rule:nonzero}
   ]]>
  </style>
 </defs>
 <g id="Слой_x0020_1">
  <metadata id="CorelCorpID_0Corel-Layer"/>
  <path class="fil0" d="M2013.47 633.46l-530.48 0c-57.61,0 -104.3,46.7 -104.3,104.31 0,57.6 46.69,104.29 104.3,104.29l64.23 0c57.6,0 104.3,46.7 104.3,104.3 0,57.61 -46.7,104.3 -104.3,104.3l-1444.01 0c-57.62,0 -104.31,-46.69 -104.31,-104.3 0,-57.6 46.69,-104.3 104.31,-104.3l1000.41 0c57.62,0 104.3,-46.69 104.3,-104.29 0,-57.61 -46.68,-104.31 -104.3,-104.31l-519.76 0c-57.62,0 -104.31,-46.69 -104.31,-104.3 0,-57.6 46.69,-104.3 104.31,-104.3l113.15 0c57.61,0 104.29,-46.7 104.29,-104.3 0,-57.6 -46.68,-104.29 -104.28,-104.3l0 0c-57.61,0 -104.3,-46.69 -104.3,-104.3 0,-57.6 46.69,-104.3 104.3,-104.3l628.51 0c57.6,0 104.3,46.7 104.3,104.3 0,57.61 -46.7,104.3 -104.3,104.3l-249.18 0c-57.6,0.01 -104.28,46.7 -104.28,104.3 0,57.6 46.69,104.3 104.3,104.3l-0.01 0 937.11 0c57.61,0 104.3,46.7 104.3,104.3 0,57.61 -46.69,104.3 -104.3,104.3z"/>
 </g>
</svg>
